<?xml version="1.0" encoding="UTF-8"?>
<svg id="Capa_1" data-name="Capa 1" xmlns="http://www.w3.org/2000/svg" viewBox="0 0 530.23 320">
  <defs>
    <style>
      .cls-1 {
        fill: #e2271e;
      }

      .cls-2 {
        fill: #001a70;
      }
    </style>
  </defs>
  <!-- texto en linea principal -->
  <g>
    <path class="cls-1" d="M219.54,294.95c2.5-.18,4.01.23,4.55,1.25.54,1.03.8,2.33.76,3.92-.04,1.58-.79,2.93-2.24,4.03-1.46,1.1-3.38,2.19-5.76,3.27-.68.27-1.27.4-1.82.42-.54.02-.99,0-1.34-.06-.36-.06-.63-.11-.84-.17-.2-.05-.33-.03-.36.08-.67,1.09-1.01,2.16-1.03,3.24-.02,1.09.33,2.08,1.06,2.99.72.91,1.54,1.44,2.44,1.59.89.15,1.82.12,2.79-.08.97-.21,2.76-.84,5.37-1.93,2.61-1.08,4.42-2.1,5.45-3.05,1.03-.95,2-1.88,2.94-2.77.93-.89,1.06-.89.39,0-.67.89-1.5,1.98-2.49,3.24-.99,1.27-2.21,2.53-3.69,3.77-1.47,1.25-2.66,2.21-3.6,2.88-.93.67-2.18,1.28-3.72,1.82-1.54.54-3.07.71-4.56.5-1.49-.2-2.61-.55-3.35-1.03-.75-.49-1.43-1.06-2.07-1.74-.63-.68-1.16-1.47-1.57-2.37-.41-.92-.62-2.16-.65-3.75-.01-1.58.36-3.3,1.12-5.17.76-1.87,1.63-3.41,2.6-4.64.97-1.23,2.28-2.47,3.94-3.72,1.66-1.25,3.55-2.1,5.67-2.55M219.59,299.98c-.26-.26-.9-.13-1.93.39-1.02.52-1.77,1.11-2.23,1.76-.47.65-.55,1.13-.25,1.43.29.29.93.17,1.9-.37.97-.54,1.74-1.08,2.32-1.62.57-.54.64-1.07.2-1.6"/>
    <path class="cls-1" d="M235.92,295c.78-.37,1.76-.3,2.96.22,1.2.51,1.45,1.47.77,2.88-.68,1.4-1.79,3.71-3.34,6.93-1.55,3.22-1.7,4.11-.47,2.65,1.23-1.45,2.73-2.94,4.47-4.45,1.75-1.51,3.01-2.48,3.78-2.93.78-.44,1.61-.77,2.52-.99.9-.22,1.92-.17,3.07.16,1.13.33,2.12,1.27,2.92,2.79.81,1.53,1.25,4.05,1.3,7.57.06,3.52.92,5.24,2.6,5.17,1.68-.08,3.31-.69,4.89-1.86,1.59-1.16,2.77-2.34,3.54-3.54.77-1.2,1.11-1.52,1-.96-.11.55-.53,1.36-1.28,2.43-.73,1.07-2.3,2.72-4.69,4.97-2.4,2.25-4.47,3.39-6.22,3.43-1.75.03-3.02-.67-3.82-2.1-.79-1.44-1.31-3.73-1.54-6.89-.24-3.15-.66-4.75-1.24-4.81-.59-.05-1.88.54-3.87,1.77-1.99,1.23-3.81,2.84-5.47,4.83-1.66,1.99-3.01,3.67-4.06,5.06-1.05,1.38-1.99,2.22-2.84,2.52-.85.29-1.55.07-2.08-.67-.53-.74-.72-1.64-.55-2.71.17-1.07.49-2.71.97-4.92.48-2.21,1.16-4.54,2.04-6.99.88-2.45,1.62-6.27,1.96-6.82.35-.55.7-1.06,1.02-1.52.33-.46.88-.87,1.66-1.24"/>
    <path class="cls-1" d="M318.61,295c.78-.37,1.76-.3,2.96.22,1.2.51,1.45,1.47.77,2.88-.68,1.4-1.79,3.71-3.34,6.93-1.55,3.22-1.7,4.11-.47,2.65,1.23-1.45,2.73-2.94,4.47-4.45,1.75-1.51,3.01-2.48,3.78-2.93.78-.44,1.61-.77,2.52-.99.9-.22,1.92-.17,3.07.16,1.13.33,2.12,1.27,2.92,2.79.81,1.53,1.25,4.05,1.3,7.57.06,3.52.92,5.24,2.6,5.17,1.68-.08,3.31-.69,4.89-1.86,1.59-1.16,2.77-2.34,3.54-3.54.77-1.2,1.11-1.52,1-.96-.11.55-.53,1.36-1.28,2.43-.73,1.07-2.3,2.72-4.69,4.97-2.4,2.25-4.47,3.39-6.22,3.43-1.75.03-3.02-.67-3.82-2.1-.79-1.44-1.31-3.73-1.54-6.89-.24-3.15-.66-4.75-1.24-4.81-.59-.05-1.88.54-3.87,1.77-1.99,1.23-3.81,2.84-5.47,4.83-1.66,1.99-3.01,3.67-4.06,5.06-1.05,1.38-1.99,2.22-2.84,2.52-.85.29-1.55.07-2.08-.67-.53-.74-.72-1.64-.55-2.71.17-1.07.49-2.71.97-4.92.48-2.21,1.16-4.54,2.04-6.99.88-2.45,1.62-6.27,1.96-6.82.35-.55.7-1.06,1.02-1.52.33-.46.88-.87,1.66-1.24"/>
    <path class="cls-1" d="M297.73,276.89c1.48-2.32,2.7-3.26,3.68-2.82.98.44,1.5,1.01,1.58,1.72.07.7-1.52,4.29-4.79,10.78-3.26,6.49-5.62,12.52-7.08,18.1-1.45,5.58-1.96,8.72-1.52,9.42.44.7,1.23.9,2.38.61,1.14-.3,4.05-1.89,8.73-4.78,4.69-2.89,7.56-4.79,8.62-5.69,1.07-.9.39-.22-2.04,2.05-2.43,2.26-4.27,3.96-5.5,5.08-1.24,1.13-2.46,2.34-3.67,3.65-1.22,1.31-2.7,2.44-4.45,3.4-1.75.96-3.28,1.49-4.59,1.58-1.31.09-2.27-.21-2.88-.91-.6-.7-1.19-1.55-1.74-2.54-.55-1-.59-2.83-.14-5.5.46-2.67,1.74-7.03,3.84-13.07,2.1-6.05,3.85-10.5,5.26-13.35,1.39-2.86,2.83-5.42,4.31-7.71"/>
    <path class="cls-1" d="M309.92,294.88c.82-.18,1.76-.13,2.83.17,1.06.29,1.25,1.38.56,3.25-.69,1.87-1.45,4.3-2.27,7.28-.82,2.99-1.6,5.42-2.33,7.29-.72,1.87-1.53,3.49-2.43,4.85-.9,1.36-1.75,2.1-2.57,2.21-.83.11-1.39.08-1.71-.08-.32-.17-.35-1.05-.08-2.61.26-1.57.81-3.97,1.65-7.2.84-3.23,1.63-6.04,2.38-8.43.75-2.39.76-3.62.03-3.67-.73-.06-.45-.53.84-1.43,1.29-.9,2.33-1.44,3.11-1.63"/>
    <path class="cls-1" d="M358.04,294.82c2.51-.19,4.04.23,4.57,1.26.55,1.03.79,2.34.76,3.93-.04,1.59-.79,2.94-2.24,4.04-1.46,1.11-3.38,2.2-5.78,3.28-.67.27-1.28.4-1.83.42-.54.02-.99,0-1.35-.06-.35-.06-.63-.11-.84-.17-.21-.05-.33-.03-.37.08-.68,1.09-1.02,2.17-1.04,3.26-.02,1.09.33,2.08,1.06,3,.73.91,1.54,1.44,2.44,1.59.9.15,1.84.13,2.8-.08.98-.21,2.77-.85,5.39-1.93,2.62-1.08,4.45-2.11,5.48-3.06,1.02-.95,2.01-1.88,2.95-2.78.93-.9,1.07-.9.39,0-.67.9-1.51,1.99-2.5,3.26-.99,1.28-2.23,2.53-3.7,3.79-1.48,1.26-2.69,2.22-3.62,2.89-.94.67-2.18,1.28-3.73,1.83-1.55.54-3.08.71-4.57.5-1.5-.2-2.62-.55-3.37-1.03-.74-.49-1.44-1.07-2.07-1.74-.64-.68-1.16-1.47-1.57-2.38-.41-.92-.62-2.17-.65-3.77-.02-1.59.35-3.31,1.12-5.19.77-1.87,1.64-3.43,2.61-4.66.98-1.24,2.29-2.48,3.95-3.73,1.68-1.26,3.57-2.11,5.7-2.56M358.1,299.87c-.26-.26-.92-.13-1.94.4-1.02.52-1.78,1.11-2.24,1.76-.47.65-.56,1.13-.26,1.43.3.3.94.18,1.91-.37.98-.55,1.76-1.08,2.33-1.63.58-.54.64-1.07.19-1.6"/>
    <path class="cls-1" d="M386.61,294.98c.88-.23,1.84-.26,2.88-.11,1.05.15,1.88.47,2.51.97.62.5,1.22,1.47,1.8,2.91.57,1.44.31,2.42-.77,2.9-1.08.5-2.06.33-2.94-.5-.87-.84-1.79-1.01-2.74-.52-.95.49-1.89,1-2.82,1.51-.93.51-2.08,1.32-3.45,2.42-1.37,1.11-2.78,2.52-4.22,4.22-1.45,1.71-2.25,2.81-2.4,3.28-.16.47.22.41,1.1-.2.9-.61,2.27-1.53,4.11-2.77,1.84-1.23,4.17-2.5,6.96-3.79,2.8-1.29,4.57-1.8,5.3-1.51.74.29,1.38.81,1.92,1.57.53.76.84,1.42.91,1.97.07.55-.01.99-.26,1.31-.24.32-.53,1.06-.85,2.2-.33,1.14-.3,2.24.08,3.31.38,1.07.86,1.8,1.46,2.2.58.4,1.39.51,2.42.35,1.03-.18,2.29-.96,3.8-2.34,1.5-1.39,1.43-1.06-.21.97-1.63,2.04-2.93,3.33-3.88,3.88-.95.55-1.69.82-2.22.8-.53-.02-1.23-.19-2.08-.51-.85-.32-1.66-.83-2.42-1.51-.76-.69-1.36-1.52-1.8-2.51-.43-.99-.73-1.72-.88-2.2-.15-.47-.5-.99-1.06-1.57-.55-.57-1.22-.69-2.02-.37-.8.32-2.19,1.21-4.2,2.66-1.99,1.44-3.86,2.63-5.58,3.57-1.74.93-3.28,1.58-4.66,1.94-1.37.36-2.25.48-2.65.37-.4-.12-.84-.54-1.31-1.28-.48-.74-.76-1.55-.83-2.42-.08-.87.05-1.76.37-2.66.33-.89,1.54-2.68,3.65-5.36,2.11-2.68,4.14-4.88,6.11-6.59,1.95-1.71,4.04-3.17,6.24-4.36,2.21-1.2,3.75-1.93,4.62-2.2"/>
    <path class="cls-1" d="M308.56,286.65c.09-.21.23-.54.39-.98.18-.44.37-.94.6-1.51.23-.56.47-1.16.73-1.81.25-.65.51-1.29.78-1.92.61-1.5,1.28-3.12,2-4.85.2-.57.51-.98.92-1.23.41-.26.85-.38,1.29-.38.41,0,.81.08,1.22.25.41.16.77.4,1.08.7.32.3.58.66.79,1.07.2.42.3.88.3,1.38,0,.78-.29,1.59-.87,2.42-.29.44-.63.91-1.01,1.44-.38.52-.78,1.08-1.19,1.65-.42.58-.83,1.14-1.26,1.71-.43.57-.84,1.1-1.23,1.61-.39.51-.74.97-1.06,1.39-.32.42-.58.75-.76,1-.26.34-.53.57-.8.71-.26.15-.53.22-.79.22-.38,0-.69-.15-.96-.46-.27-.31-.39-.72-.39-1.22,0-.18.01-.37.06-.57.04-.2.09-.41.18-.63"/>
  </g>
  <!-- texto UNE -->
  <g>
    <path class="cls-2" d="M0,201.08v-72.44h44.64v71.88c0,16.32,8.45,23.27,20.28,23.27s20.26-6.39,20.26-22.34v-72.81h44.66v71.49c0,44.86-26.08,59.87-65.31,59.87S0,244.61,0,201.08"/>
    <polygon class="cls-2" points="143.82 128.63 184.91 128.63 231.64 186.62 231.64 128.63 275.17 128.63 275.17 259.99 236.14 259.99 187.36 199.38 187.36 259.99 143.82 259.99 143.82 128.63"/>
    <polygon class="cls-2" points="289.2 128.63 402.18 128.63 402.18 164.66 332.37 164.66 332.37 177.99 396.54 177.99 396.54 209.71 332.37 209.71 332.37 223.96 402.18 223.96 402.18 259.99 289.2 259.99 289.2 128.63"/>
  </g>
   <!-- Banderas -->

  <g>
    <path class="cls-1" d="M451.92,152.21c-.11.86-.82,1.54-1.7,1.6h-21.77c-.9-.06-1.62-.76-1.71-1.65h0c-.85-26.53-22.22-47.87-48.75-48.68-.89-.13-1.57-.9-1.57-1.82v-21.53c0-.94.69-1.71,1.6-1.83,40.44.84,73.07,33.47,73.9,73.91Z"/>
    <path class="cls-1" d="M530.23,152.15c-.09.89-.81,1.59-1.71,1.65h-21.77c-.86-.06-1.56-.7-1.69-1.54-.82-69.77-57.17-126.18-126.92-127.09-.96-.05-1.72-.84-1.72-1.81V1.84c0-.96.73-1.74,1.66-1.84,83.63.88,151.27,68.52,152.15,152.15Z"/>
    <path class="cls-2" d="M491.07,152.17c-.1.88-.82,1.57-1.71,1.63h-21.77c-.88-.06-1.58-.73-1.7-1.58-.83-48.19-39.75-87.09-87.95-87.9-.87-.15-1.53-.9-1.53-1.81v-21.53c0-.95.71-1.73,1.64-1.83,62.03.87,112.15,50.99,113.02,113.02Z"/>
  </g>
</svg>